<svg width="16" height="16" viewBox="0 0 16 16" fill="none" xmlns="http://www.w3.org/2000/svg">
<rect width="16" height="16" rx="2" fill="#142F53"/>
<path d="M3 14V13.5803L3.32198 13.5471C3.69816 13.5023 3.98507 13.4443 4.18432 13.3713C4.38356 13.2983 4.51905 13.1424 4.59556 12.9019C4.67048 12.6613 4.70873 12.2682 4.70873 11.7208V4.27924C4.70873 3.72021 4.67048 3.32375 4.59556 3.08985C4.52065 2.85596 4.38356 2.70169 4.18432 2.6287C3.98507 2.55571 3.69816 2.49765 3.32198 2.45286L3 2.41968V2L5.38298 2.04977H7.57309C8.21706 2.04977 8.81798 2.09124 9.37587 2.17584C9.93376 2.26044 10.4231 2.41637 10.8407 2.64529C11.2599 2.87421 11.5867 3.20597 11.8226 3.64224C12.0585 4.07852 12.1765 4.64253 12.1765 5.33426C12.1765 6.32956 11.8162 7.13243 11.0974 7.74786C10.3785 8.36329 9.33123 8.67017 7.95723 8.67017H6.07476V11.7208C6.07476 12.2682 6.12099 12.6613 6.21185 12.9019C6.3027 13.1424 6.46688 13.2983 6.70278 13.3713C6.93869 13.4443 7.27183 13.5023 7.70061 13.5471L8.05447 13.5803V14L5.33357 13.9502L3 14ZM8.20112 2.51922H6.07476V8.16754H7.95883C8.70002 8.16754 9.26269 8.0564 9.65003 7.83246C10.0358 7.60852 10.2988 7.28504 10.439 6.86038C10.5793 6.43572 10.6479 5.92811 10.6479 5.33591C10.6479 4.69892 10.5698 4.19298 10.4151 3.81974C10.2589 3.44484 10.0549 3.16284 9.80305 2.97373C9.5512 2.78463 9.28183 2.66187 8.9981 2.60547C8.71437 2.54741 8.44818 2.51922 8.20112 2.51922Z" fill="white"/>
</svg>
